<?xml version="1.0" standalone="no"?>
<!DOCTYPE svg PUBLIC "-//W3C//DTD SVG 20010904//EN"
 "http://www.w3.org/TR/2001/REC-SVG-20010904/DTD/svg10.dtd">
<svg version="1.0" xmlns="http://www.w3.org/2000/svg"
 width="512.000000pt" height="512.000000pt" viewBox="0 0 512.000000 512.000000"
 preserveAspectRatio="xMidYMid meet">
<metadata>
Created by potrace 1.16, written by Peter Selinger 2001-2019
</metadata>
<g transform="translate(0.000000,512.000000) scale(0.100000,-0.100000)"
fill="#000000" stroke="none">
<path d="M1777 4969 c-554 -55 -590 -60 -615 -81 -15 -13 -224 -194 -465 -402
-411 -357 -437 -382 -437 -413 0 -23 7 -37 24 -48 23 -15 42 -15 241 5 122 13
220 19 225 14 5 -5 56 -120 114 -256 l106 -247 0 -1570 c0 -1567 0 -1570 21
-1626 39 -104 129 -194 233 -231 49 -18 113 -19 1434 -22 l1382 -2 25 24 25
25 0 398 1 398 86 -214 c92 -225 102 -241 157 -227 19 5 42 35 97 131 40 69
77 124 83 122 6 -3 62 -19 124 -36 133 -38 171 -38 190 1 12 26 6 45 -83 265
-52 130 -95 243 -95 250 0 8 18 37 41 65 97 123 157 289 166 459 23 423 -260
786 -676 866 l-91 18 0 577 c0 389 -4 594 -11 630 -26 121 -103 217 -217 271
l-67 32 -735 3 -735 3 -97 227 c-53 125 -100 234 -103 243 -5 12 26 45 116
123 67 58 124 106 128 106 4 0 31 -56 60 -126 l54 -125 -21 -22 c-50 -53 -66
-153 -36 -225 60 -145 257 -178 361 -59 41 47 57 98 50 164 -10 100 -72 165
-177 186 l-62 13 -74 175 c-41 96 -82 180 -91 187 -22 16 23 19 -656 -49z
m413 -93 c0 -3 -589 -517 -692 -604 -26 -22 -56 -26 -480 -68 -249 -24 -462
-43 -472 -42 -14 2 78 88 320 297 186 162 348 302 359 312 17 15 92 25 465 63
461 45 500 49 500 42z m-67 -578 l84 -196 -62 -50 c-210 -169 -459 -297 -720
-371 -89 -25 -276 -61 -318 -61 l-32 0 -94 221 c-51 121 -92 221 -90 223 2 1
137 15 299 30 162 15 306 29 320 32 14 3 133 99 265 214 l240 208 11 -26 c6
-15 50 -116 97 -224z m562 197 c45 -44 29 -116 -30 -141 -48 -20 -96 3 -116
54 -11 28 11 85 38 101 33 19 82 13 108 -14z m1109 -489 c47 -19 113 -82 139
-130 22 -41 22 -46 25 -642 l3 -600 -76 -13 c-42 -7 -101 -21 -131 -31 l-54
-19 0 383 c0 440 7 408 -99 425 -81 13 -139 42 -192 94 -51 51 -86 123 -95
196 -12 100 55 91 -703 91 l-665 0 59 37 c68 41 281 198 290 213 4 6 273 10
736 10 603 0 735 -2 763 -14z m-595 -420 c13 -57 65 -152 109 -200 44 -47 136
-102 201 -120 l61 -17 0 -374 0 -373 -48 -35 c-103 -76 -198 -193 -257 -320
-52 -108 -67 -177 -72 -322 -4 -110 -2 -144 16 -220 26 -107 82 -228 147 -314
l47 -63 -96 -239 c-54 -131 -97 -246 -97 -255 0 -28 31 -54 64 -54 18 0 85 15
151 34 66 19 120 34 121 33 1 -1 32 -55 69 -120 66 -116 85 -137 123 -137 32
0 49 30 133 236 45 109 83 201 85 203 2 2 4 -156 4 -352 l0 -357 -1342 2
-1343 3 -47 27 c-25 16 -60 45 -78 65 -63 78 -60 -13 -60 1654 l0 1518 33 5
c17 3 64 10 102 16 39 6 82 13 98 16 l27 6 0 -1309 c0 -1055 3 -1313 13 -1327
8 -11 40 -23 84 -31 169 -32 270 -134 291 -294 6 -43 15 -69 27 -78 15 -11
177 -13 887 -13 855 0 868 0 888 20 23 23 26 58 6 86 -14 18 -36 19 -849 22
l-835 2 -7 38 c-27 144 -174 294 -327 332 l-48 12 0 1287 0 1286 108 36 107
37 746 1 746 1 12 -54z m998 -1102 c137 -35 286 -130 374 -238 61 -74 123
-198 143 -286 21 -86 20 -246 0 -329 -62 -254 -277 -468 -529 -527 -96 -22
-241 -20 -336 5 -284 73 -490 310 -530 608 -42 316 159 635 473 749 121 44
277 51 405 18z m-485 -1464 c42 -16 84 -30 92 -30 8 0 18 -5 21 -11 7 -10 -93
-269 -104 -269 -3 0 -26 37 -51 81 -25 45 -55 86 -67 92 -17 8 -44 4 -115 -16
-50 -15 -94 -25 -96 -22 -2 2 22 69 54 148 l59 143 64 -43 c36 -24 100 -56
143 -73z m892 -31 c31 -78 55 -143 53 -146 -3 -2 -46 8 -96 23 -116 35 -124
32 -187 -81 -27 -48 -50 -81 -53 -73 -2 7 -28 70 -56 139 l-53 127 84 27 c46
15 119 49 161 76 43 26 81 48 84 49 3 0 32 -63 63 -141z"/>
<path d="M2011 2954 c-27 -34 -26 -50 4 -79 l24 -25 491 0 c477 0 491 1 510
20 11 11 20 31 20 45 0 14 -9 34 -20 45 -19 19 -33 20 -514 20 l-495 0 -20
-26z"/>
<path d="M1707 2558 c-9 -7 -19 -25 -22 -40 -5 -21 -1 -33 19 -52 l25 -26 794
0 c788 0 794 0 821 21 31 25 34 61 6 89 -20 20 -33 20 -823 20 -627 0 -807 -3
-820 -12z"/>
<path d="M1707 2148 c-9 -7 -19 -25 -22 -40 -5 -21 -1 -33 19 -52 l25 -26 673
0 c749 0 718 -3 718 65 0 69 43 65 -714 65 -530 0 -686 -3 -699 -12z"/>
<path d="M1700 1730 c-25 -25 -25 -51 -1 -81 l19 -24 650 -3 c417 -1 659 1
676 8 47 17 54 84 12 112 -6 4 -309 8 -673 8 -650 0 -663 0 -683 -20z"/>
<path d="M1709 1330 c-25 -15 -32 -58 -14 -86 l15 -24 275 0 c261 0 275 1 285
19 15 30 12 66 -8 84 -16 15 -50 17 -278 17 -146 0 -266 -5 -275 -10z"/>
<path d="M3880 2384 c-325 -85 -522 -413 -441 -733 51 -204 198 -362 396 -428
101 -33 255 -37 350 -9 222 66 384 241 431 466 29 136 3 292 -69 420 -41 74
-158 188 -234 228 -126 66 -305 90 -433 56z m284 -134 c36 -12 94 -40 128 -63
246 -168 278 -516 68 -727 -235 -234 -619 -166 -766 135 -39 79 -39 81 -39
200 0 118 1 121 37 198 60 126 169 221 303 263 64 20 193 17 269 -6z"/>
<path d="M4280 2053 c-8 -3 -96 -86 -195 -184 l-180 -179 -60 60 c-52 52 -64
60 -97 60 -27 0 -40 -6 -48 -19 -23 -43 -12 -65 83 -159 75 -75 98 -92 122
-92 26 0 60 30 243 213 230 231 239 245 186 286 -28 22 -30 23 -54 14z"/>
</g>
</svg>
