<?xml version="1.0" standalone="no"?>
<!DOCTYPE svg PUBLIC "-//W3C//DTD SVG 20010904//EN"
 "http://www.w3.org/TR/2001/REC-SVG-20010904/DTD/svg10.dtd">
<svg version="1.0" xmlns="http://www.w3.org/2000/svg"
 width="512.000000pt" height="512.000000pt" viewBox="0 0 512.000000 512.000000"
 preserveAspectRatio="xMidYMid meet">
<metadata>
Created by potrace 1.16, written by Peter Selinger 2001-2019
</metadata>
<g transform="translate(0.000000,512.000000) scale(0.100000,-0.100000)"
fill="#000000" stroke="none">
<path d="M285 5101 c-108 -39 -199 -121 -251 -226 l-29 -60 -3 -1039 c-2 -940
-1 -1045 14 -1090 46 -142 164 -251 311 -287 26 -7 49 -13 50 -14 2 -1 77
-194 168 -431 92 -236 177 -448 190 -470 80 -137 270 -223 431 -195 41 8 421
149 1027 382 529 204 983 379 1008 388 l46 18 -18 -57 c-109 -352 -56 -740
144 -1053 l37 -57 0 -431 0 -430 25 -24 24 -25 809 0 809 0 21 23 22 24 -2
1524 -3 1524 -22 77 c-47 164 -106 286 -202 413 -24 33 -174 191 -333 351
l-288 290 0 266 c0 237 -2 273 -20 330 -37 120 -113 207 -229 262 l-66 31
-1810 2 c-1727 2 -1812 2 -1860 -16z m3655 -182 c55 -25 95 -62 123 -114 l22
-40 3 -990 2 -989 -412 410 c-367 365 -420 414 -478 442 -325 157 -694 -88
-667 -443 6 -79 34 -163 75 -223 15 -22 92 -111 170 -196 79 -86 155 -170 169
-187 l25 -29 -1298 2 c-1455 3 -1335 -3 -1418 76 -81 78 -76 -7 -76 1115 0
1108 -5 1035 68 1111 20 21 55 47 77 57 39 18 106 19 1805 19 1754 0 1765 -1
1810 -21z m847 -1506 c56 -85 89 -157 127 -273 20 -64 21 -79 24 -1088 l3
-1022 -696 0 -695 0 -24 38 c-121 191 -185 428 -172 630 11 157 38 263 107
411 65 139 92 94 -328 551 -203 220 -379 421 -392 446 -101 189 60 423 274
401 29 -3 72 -15 96 -27 31 -15 257 -235 741 -718 l698 -697 60 60 c33 33 60
64 60 70 0 5 -68 78 -152 162 -129 129 -149 153 -132 159 81 29 151 70 199
115 100 94 149 240 127 372 -7 47 -256 722 -299 812 -2 6 68 -64 157 -154 108
-109 181 -192 217 -248z m-384 -78 c69 -181 129 -346 132 -367 4 -22 1 -58
-10 -93 -23 -80 -77 -136 -168 -173 -122 -51 -118 -51 -101 4 11 38 14 140 14
507 0 253 2 458 3 456 2 -2 61 -152 130 -334z m-1215 -1005 l52 -58 -62 -25
c-35 -14 -504 -195 -1043 -402 -1060 -409 -1036 -401 -1126 -363 -44 19 -106
72 -123 107 -21 40 -159 402 -155 405 2 2 231 91 509 199 l505 195 695 0 695
1 53 -59z m-1993 40 c-135 -56 -522 -200 -530 -196 -9 3 -29 49 -82 194 -4 9
63 12 313 11 181 0 310 -4 299 -9z m3745 -1855 l0 -335 -675 0 -675 0 0 335 0
335 675 0 675 0 0 -335z"/>
<path d="M465 4762 c-50 -23 -101 -80 -115 -129 -7 -25 -10 -129 -8 -304 l3
-266 27 -41 c15 -22 49 -54 75 -69 l48 -28 252 -3 c169 -2 265 1 295 8 56 16
132 90 147 145 7 24 11 137 11 286 l0 247 -28 53 c-17 34 -44 65 -71 84 l-43
30 -276 3 c-251 2 -281 0 -317 -16z m545 -181 c5 -11 10 -47 10 -80 l0 -61
-85 0 -85 0 0 -90 0 -90 85 0 85 0 0 -62 c0 -100 5 -98 -247 -98 -129 0 -222
4 -234 10 -16 9 -19 22 -19 80 l0 70 85 0 85 0 0 90 0 90 -85 0 -85 0 0 68 c0
40 5 73 12 80 9 9 76 12 240 12 214 0 228 -1 238 -19z"/>
<path d="M2560 4565 l0 -135 90 0 90 0 0 135 0 135 -90 0 -90 0 0 -135z"/>
<path d="M2900 4565 l0 -135 90 0 90 0 0 135 0 135 -90 0 -90 0 0 -135z"/>
<path d="M3240 4565 l0 -135 90 0 90 0 0 135 0 135 -90 0 -90 0 0 -135z"/>
<path d="M3580 4565 l0 -135 90 0 90 0 0 135 0 135 -90 0 -90 0 0 -135z"/>
<path d="M420 3580 l0 -90 175 0 175 0 0 90 0 90 -175 0 -175 0 0 -90z"/>
<path d="M930 3580 l0 -90 175 0 175 0 0 90 0 90 -175 0 -175 0 0 -90z"/>
<path d="M1450 3580 l0 -90 175 0 175 0 0 90 0 90 -175 0 -175 0 0 -90z"/>
<path d="M1960 3580 l0 -90 175 0 175 0 0 90 0 90 -175 0 -175 0 0 -90z"/>
<path d="M420 3070 l0 -90 175 0 175 0 0 90 0 90 -175 0 -175 0 0 -90z"/>
<path d="M1960 3070 l0 -90 175 0 175 0 0 90 0 90 -175 0 -175 0 0 -90z"/>
<path d="M3750 600 l0 -90 90 0 90 0 0 90 0 90 -90 0 -90 0 0 -90z"/>
</g>
</svg>
