<?xml version="1.0" standalone="no"?>
<!DOCTYPE svg PUBLIC "-//W3C//DTD SVG 20010904//EN"
 "http://www.w3.org/TR/2001/REC-SVG-20010904/DTD/svg10.dtd">
<svg version="1.0" xmlns="http://www.w3.org/2000/svg"
 width="512.000000pt" height="512.000000pt" viewBox="0 0 512.000000 512.000000"
 preserveAspectRatio="xMidYMid meet">
<metadata>
Created by potrace 1.16, written by Peter Selinger 2001-2019
</metadata>
<g transform="translate(0.000000,512.000000) scale(0.100000,-0.100000)"
fill="#000000" stroke="none">
<path d="M2182 5105 c-23 -7 -394 -197 -824 -422 -865 -451 -868 -453 -928
-576 -17 -37 -112 -356 -230 -776 -222 -792 -222 -793 -174 -889 38 -77 127
-141 196 -142 l27 0 3 -717 c3 -715 3 -718 25 -759 27 -50 75 -97 122 -121 34
-17 107 -18 1311 -21 l1276 -2 18 -30 c32 -55 133 -176 208 -250 146 -145 320
-260 527 -349 165 -71 207 -71 372 0 215 92 386 207 539 360 247 247 409 573
460 924 5 40 10 321 10 665 0 669 3 636 -76 712 -56 53 -87 63 -294 93 -102
15 -190 32 -196 38 -6 7 -86 280 -178 607 -95 341 -179 621 -197 657 -59 122
-63 125 -927 576 -429 225 -802 415 -828 423 -58 17 -185 17 -242 -1z m266
-209 c390 -196 1493 -783 1520 -809 19 -18 41 -45 49 -62 15 -28 332 -1136
327 -1143 -2 -4 -154 35 -159 40 -3 2 -65 222 -140 488 -141 502 -153 536
-217 583 -31 23 -1303 692 -1412 743 -74 34 -152 33 -232 -5 -128 -60 -1371
-715 -1402 -738 -18 -14 -44 -41 -57 -61 -16 -25 -86 -259 -210 -702 -102
-366 -191 -678 -197 -693 -12 -32 -44 -57 -71 -57 -28 0 -67 45 -67 77 0 32
382 1399 406 1455 9 20 33 52 53 72 24 24 264 154 736 402 951 498 860 453
928 453 49 1 71 -6 145 -43z m573 -682 c384 -201 702 -371 707 -377 8 -10 242
-824 242 -842 0 -3 -20 -5 -44 -5 -24 0 -102 -18 -172 -39 -248 -76 -495 -130
-744 -161 -116 -14 -161 -33 -210 -86 -59 -65 -70 -97 -70 -214 l0 -100 -754
0 -753 0 -33 -22 c-44 -30 -69 -66 -80 -114 -5 -21 -10 -344 -10 -716 l0 -678
-307 0 c-324 1 -327 1 -351 47 -9 16 -12 213 -12 742 l0 720 30 48 c22 36 75
211 220 728 117 417 198 686 208 697 25 24 1394 738 1416 738 11 0 333 -165
717 -366z m985 -1429 c139 -52 494 -129 783 -169 80 -12 109 -20 127 -37 l24
-22 0 -566 c0 -608 -3 -656 -54 -831 -103 -356 -339 -658 -662 -849 -94 -55
-267 -131 -300 -131 -14 0 -78 24 -143 54 -432 195 -726 547 -838 1004 l-27
107 -3 605 -4 606 23 21 c19 18 55 27 193 48 306 47 640 123 745 169 47 21 59
20 136 -9z m-1908 -607 c-140 -200 -342 -473 -349 -473 -6 0 -329 438 -363
493 -6 9 70 12 364 12 l371 0 -23 -32z m632 -135 c0 -97 -4 -163 -9 -157 -11
11 -194 263 -217 298 l-16 26 121 0 121 0 0 -167z m-1265 -270 l171 -237 -169
-235 c-94 -130 -174 -240 -179 -246 -4 -5 -8 211 -8 480 0 268 3 485 7 481 4
-4 84 -113 178 -243z m1104 8 c88 -123 161 -234 161 -245 0 -16 -300 -449
-336 -485 -2 -2 -4 216 -4 484 0 280 4 485 9 480 5 -6 81 -111 170 -234z
m-359 -248 l0 -477 -43 59 c-24 33 -102 141 -174 240 l-130 181 171 237 c94
130 172 237 173 237 2 0 3 -215 3 -477z m-270 -418 l181 -250 -186 -3 c-102
-1 -269 -1 -371 0 l-186 3 183 253 c100 139 186 251 190 250 5 -2 90 -115 189
-253z m893 -132 c19 -48 37 -96 42 -105 7 -17 -6 -18 -190 -18 -108 0 -195 4
-193 8 2 4 62 89 133 188 l130 180 22 -82 c12 -46 37 -123 56 -171z"/>
<path d="M1635 3916 c-41 -19 -83 -66 -95 -107 -6 -19 -10 -192 -10 -405 0
-369 0 -371 23 -415 15 -27 38 -52 63 -66 l39 -23 648 0 c704 0 673 -2 729 57
47 50 50 79 46 478 -3 413 -2 407 -75 462 l-36 28 -651 2 c-529 2 -657 0 -681
-11z m575 -501 l0 -335 -250 0 -250 0 0 335 0 335 250 0 250 0 0 -335z m690 0
l0 -335 -255 0 -255 0 0 335 0 335 255 0 255 0 0 -335z"/>
<path d="M3815 2609 c-95 -31 -329 -86 -460 -109 -66 -11 -139 -28 -162 -36
-50 -18 -98 -69 -113 -121 -8 -27 -10 -182 -8 -513 l4 -475 27 -100 c68 -252
167 -427 341 -601 109 -109 202 -176 336 -244 118 -60 172 -60 289 -2 123 62
212 124 313 220 205 195 335 439 383 716 12 71 15 178 15 535 0 495 -1 496
-68 553 -39 33 -68 42 -216 68 -143 25 -293 60 -432 100 -117 34 -165 36 -249
9z m237 -195 c68 -19 202 -51 298 -69 96 -19 191 -38 210 -42 l35 -8 0 -455
-1 -455 -26 -98 c-31 -112 -97 -256 -159 -348 -98 -145 -299 -317 -440 -377
l-47 -20 -66 34 c-279 143 -490 404 -573 709 l-27 100 -1 455 0 454 30 8 c17
4 84 17 150 28 120 22 398 89 445 109 36 14 37 14 172 -25z"/>
<path d="M4130 1867 c-11 -8 -342 -401 -376 -446 -2 -1 -13 4 -26 13 -61 43
-148 2 -148 -70 0 -33 8 -46 68 -106 60 -59 73 -68 105 -68 26 0 45 8 66 28
38 36 425 502 440 529 33 63 -7 133 -76 133 -21 0 -45 -6 -53 -13z"/>
</g>
</svg>
