<?xml version="1.0" standalone="no"?>
<!DOCTYPE svg PUBLIC "-//W3C//DTD SVG 20010904//EN"
 "http://www.w3.org/TR/2001/REC-SVG-20010904/DTD/svg10.dtd">
<svg version="1.0" xmlns="http://www.w3.org/2000/svg"
 width="512.000000pt" height="512.000000pt" viewBox="0 0 512.000000 512.000000"
 preserveAspectRatio="xMidYMid meet">

<g transform="translate(0.000000,512.000000) scale(0.100000,-0.100000)"
fill="#000000" stroke="none">
<path d="M249 5017 c-100 -28 -175 -92 -221 -187 -31 -64 -32 -196 -1 -262 30
-66 96 -133 162 -165 48 -24 68 -28 141 -28 72 0 93 4 142 28 67 33 121 90
155 163 l24 54 197 0 197 0 400 -400 c430 -429 423 -423 479 -379 20 15 26 29
26 57 0 35 -19 56 -418 454 l-417 418 -231 0 -230 0 -23 54 c-31 76 -82 130
-154 166 -73 36 -160 46 -228 27z m139 -151 c77 -27 133 -122 117 -197 -16
-81 -96 -149 -173 -149 -38 0 -97 23 -126 48 -27 24 -56 91 -56 131 0 46 35
116 71 142 54 38 109 47 167 25z"/>
<path d="M4395 4700 c-308 -81 -541 -340 -581 -647 l-7 -53 -35 31 c-61 54
-138 98 -219 125 -68 23 -99 27 -244 32 -186 5 -223 -2 -264 -49 -24 -30 -25
-35 -25 -178 0 -99 5 -166 15 -206 50 -194 203 -355 395 -416 50 -16 103 -22
223 -26 l157 -6 0 -434 c0 -353 -2 -434 -13 -430 -7 3 -272 151 -588 330
l-574 326 -3 81 -3 80 73 0 c40 0 90 5 110 10 57 16 119 69 150 129 24 45 28
65 28 132 0 147 -39 190 -180 197 -59 3 -104 -1 -137 -10 l-51 -15 -33 50
c-23 33 -52 60 -89 81 -52 30 -60 31 -167 31 -97 0 -115 -3 -139 -21 -59 -43
-69 -68 -69 -162 1 -103 21 -157 80 -214 50 -48 110 -68 202 -68 l74 0 -3
-157 -3 -157 -655 -372 c-360 -205 -658 -373 -663 -373 -4 -1 -6 79 -5 177 l3
177 100 5 c85 5 108 10 154 35 60 33 111 87 143 154 17 34 23 70 26 137 5 112
-7 155 -56 192 -34 26 -40 27 -151 26 -98 0 -124 -4 -165 -22 -67 -30 -111
-65 -143 -113 l-26 -39 -35 32 c-20 17 -66 45 -102 62 -60 28 -75 31 -188 34
-136 4 -168 -3 -206 -49 -32 -38 -42 -118 -28 -231 14 -111 45 -181 113 -253
91 -96 184 -135 326 -135 l84 0 -3 -141 -3 -141 -142 -82 c-77 -44 -150 -90
-162 -100 -26 -24 -27 -66 -2 -97 31 -38 73 -30 193 40 59 33 110 61 113 61 3
0 5 -112 5 -249 0 -137 3 -257 6 -266 9 -24 60 -46 89 -39 49 12 50 17 55 342
l5 306 139 78 138 79 489 -277 c269 -152 488 -278 487 -279 -2 -1 -279 -158
-616 -350 -353 -199 -621 -345 -630 -342 -18 4 -931 533 -945 547 -5 4 52 42
127 85 75 42 143 83 151 91 39 40 2 124 -54 124 -35 -1 -379 -199 -405 -233
-26 -35 -26 -89 0 -124 13 -17 459 -283 1185 -705 1395 -813 1322 -772 1360
-764 42 8 1818 1042 1852 1078 31 33 31 66 0 101 -32 35 -71 22 -275 -98
l-197 -115 -363 206 c-200 114 -479 272 -621 352 -141 80 -254 149 -250 153 5
4 224 129 488 279 l480 273 55 -30 55 -30 5 -307 c5 -290 6 -308 24 -322 28
-20 69 -17 97 5 24 19 24 20 27 275 2 141 5 256 7 256 4 0 955 -538 962 -544
1 -1 -58 -37 -132 -80 -173 -100 -185 -109 -185 -150 0 -44 38 -80 78 -74 15
2 112 53 213 112 191 111 219 135 219 191 0 60 -20 76 -282 225 -139 79 -383
217 -541 307 -159 90 -300 169 -313 175 -24 11 -24 13 -24 145 l0 133 123 0
c140 0 191 12 274 67 117 77 173 196 173 366 0 92 -20 134 -80 165 -38 19 -60
22 -156 22 -138 0 -203 -12 -276 -49 l-58 -30 0 98 c0 54 -3 172 -7 263 l-6
166 219 4 c227 5 260 11 375 60 67 28 86 74 48 122 -26 33 -52 33 -148 -1 -71
-25 -90 -27 -278 -31 l-203 -4 0 104 c0 122 16 194 67 298 51 104 169 222 273
273 119 58 169 67 383 67 l190 0 -6 -112 c-6 -139 -37 -243 -102 -343 -51 -79
-55 -106 -20 -140 56 -57 115 -15 190 138 61 125 76 188 82 354 6 158 0 187
-49 228 l-30 25 -236 -1 c-197 0 -249 -3 -307 -19z m-960 -670 c39 -6 97 -23
131 -40 74 -36 165 -129 199 -202 29 -64 47 -172 43 -259 l-3 -64 -93 -3
c-260 -8 -418 73 -506 258 -28 60 -31 75 -34 193 l-4 127 98 0 c55 0 131 -5
169 -10z m-983 -349 c23 -25 28 -41 28 -81 l0 -50 -71 0 c-64 0 -73 3 -99 28
-29 30 -50 108 -35 133 5 8 30 10 78 6 64 -4 74 -8 99 -36z m388 -146 c0 -92
-38 -125 -145 -125 l-65 0 0 35 c0 92 48 134 153 135 l57 0 0 -45z m-1410
-493 c0 -76 -31 -138 -86 -169 -31 -18 -55 -23 -116 -23 l-78 0 0 52 c0 62 30
129 70 158 34 24 88 38 158 39 l52 1 0 -58z m2948 -34 c-5 -83 -28 -136 -80
-185 -54 -52 -93 -63 -223 -63 l-115 0 0 65 c0 77 18 127 63 173 62 65 108 80
256 81 l104 1 -5 -72z m-3557 27 c62 -21 109 -63 144 -126 24 -45 30 -68 33
-143 l5 -88 -94 4 c-105 5 -152 23 -206 80 -52 55 -73 111 -73 206 l0 82 73 0
c40 0 94 -7 118 -15z m2281 -373 c241 -136 437 -249 437 -252 0 -4 -957 -548
-973 -553 -12 -4 -975 548 -968 555 8 8 850 487 870 495 9 4 12 -50 12 -250 0
-271 4 -296 47 -316 34 -16 47 -14 77 10 l26 20 0 276 c0 257 1 275 17 268 10
-3 215 -117 455 -253z m75 -1330 c329 -186 606 -343 616 -349 15 -8 -89 -72
-604 -372 l-622 -362 -476 277 c-262 153 -542 316 -623 363 l-147 85 27 16
c15 9 234 134 487 277 253 144 519 295 590 336 72 41 135 73 142 72 6 -2 281
-156 610 -343z"/>
<path d="M2205 1250 c-61 -30 -80 -69 -79 -165 0 -97 15 -145 62 -197 55 -61
103 -81 205 -86 l87 -4 0 -95 c0 -92 1 -95 30 -125 25 -24 36 -29 58 -24 51
13 62 38 62 146 l0 97 83 5 c94 5 148 28 192 80 43 51 55 90 55 182 0 75 -3
88 -25 114 -38 46 -72 55 -182 50 -74 -3 -108 -9 -138 -25 l-40 -21 -35 29
c-47 40 -117 59 -214 59 -61 0 -91 -5 -121 -20z m218 -141 c40 -21 57 -51 57
-106 l0 -53 -62 0 c-81 0 -122 23 -137 77 -12 44 -14 77 -4 86 11 11 123 8
146 -4z m387 -63 c0 -19 -3 -42 -6 -51 -10 -26 -59 -45 -119 -45 -52 0 -55 1
-55 25 0 36 27 84 53 95 12 5 46 9 75 9 l52 1 0 -34z"/>
<path d="M169 4181 c-25 -25 -30 -37 -25 -59 13 -53 36 -62 166 -62 116 0 119
1 139 26 26 33 27 65 2 95 -18 22 -27 24 -135 27 l-116 4 -31 -31z"/>
<path d="M633 4200 c-45 -18 -55 -72 -22 -114 l20 -26 238 0 c235 0 238 0 259
23 29 31 28 72 -3 102 l-24 25 -223 -1 c-123 0 -233 -4 -245 -9z"/>
<path d="M204 3893 c-55 -11 -76 -85 -35 -126 21 -22 24 -22 461 -25 369 -2
444 0 474 12 38 16 53 48 42 92 -13 52 -36 54 -498 53 -233 -1 -433 -4 -444
-6z"/>
<path d="M172 3563 c-12 -10 -24 -30 -28 -45 -5 -22 0 -34 25 -58 l30 -31 456
3 457 3 19 24 c26 32 24 73 -4 99 -23 22 -25 22 -479 22 -420 0 -457 -1 -476
-17z"/>
</g>
</svg>
