<?xml version="1.0" standalone="no"?>
<!DOCTYPE svg PUBLIC "-//W3C//DTD SVG 20010904//EN"
 "http://www.w3.org/TR/2001/REC-SVG-20010904/DTD/svg10.dtd">
<svg version="1.0" xmlns="http://www.w3.org/2000/svg"
 width="512.000000pt" height="512.000000pt" viewBox="0 0 512.000000 512.000000"
 preserveAspectRatio="xMidYMid meet">
<metadata>
Created by potrace 1.16, written by Peter Selinger 2001-2019
</metadata>
<g transform="translate(0.000000,512.000000) scale(0.100000,-0.100000)"
fill="#000000" stroke="none">
<path d="M3003 5010 c-48 -11 -119 -56 -147 -93 -57 -75 -56 -53 -56 -888 l0
-769 25 -16 c20 -13 31 -14 48 -7 12 6 105 112 207 236 l185 226 550 1 550 0
50 24 c67 31 120 92 140 160 14 46 15 117 13 497 l-3 444 -31 55 c-37 65 -102
114 -174 129 -59 13 -1305 14 -1357 1z m725 -736 c1 -115 0 -219 -3 -231 -6
-27 -49 -41 -70 -23 -12 10 -15 50 -15 236 0 218 0 223 22 238 19 13 25 14 43
2 19 -13 20 -25 23 -222z"/>
<path d="M1955 3170 c-684 -59 -1241 -562 -1377 -1243 -32 -160 -32 -414 0
-574 183 -917 1105 -1460 1992 -1172 52 17 145 55 205 85 413 204 713 591 817
1055 20 91 23 130 23 319 0 189 -3 228 -23 319 -121 540 -491 956 -1012 1136
-180 62 -429 92 -625 75z m366 -126 c283 -48 545 -182 756 -387 210 -204 347
-454 410 -747 25 -120 25 -420 0 -540 -63 -296 -186 -522 -401 -735 -132 -132
-227 -200 -381 -275 -197 -95 -337 -130 -565 -137 -258 -8 -441 28 -656 131
-364 175 -622 467 -749 850 -50 148 -68 267 -68 436 0 170 18 288 69 440 169
509 596 875 1124 965 109 19 348 18 461 -1z"/>
<path d="M1866 2834 c-296 -53 -567 -222 -754 -469 -74 -97 -166 -288 -196
-407 -74 -287 -48 -580 73 -834 162 -340 450 -575 814 -665 168 -42 414 -40
590 5 334 86 628 323 782 633 169 341 169 744 -1 1086 -166 338 -499 587 -868
652 -110 19 -332 18 -440 -1z m496 -127 c256 -67 501 -242 641 -458 69 -107
87 -143 126 -253 184 -520 -59 -1100 -563 -1346 -245 -120 -544 -144 -801 -63
-161 50 -306 136 -429 253 -160 153 -260 320 -318 534 -20 70 -22 106 -22 266
0 159 3 196 22 263 57 208 161 386 304 523 163 156 332 246 553 294 130 29
351 22 487 -13z"/>
<path d="M2046 2218 c-9 -13 -16 -43 -16 -69 0 -44 -1 -46 -37 -57 -95 -28
-165 -134 -165 -245 0 -78 24 -138 78 -189 48 -45 91 -64 169 -73 75 -9 120
-36 146 -88 64 -124 -69 -259 -193 -198 -53 26 -76 57 -87 118 -13 67 -53 91
-97 59 -45 -34 0 -185 74 -246 20 -17 54 -36 75 -42 36 -11 37 -13 37 -57 0
-76 38 -109 91 -81 15 9 19 22 19 65 l0 54 53 24 c94 43 147 118 155 217 11
151 -89 268 -243 285 -72 7 -117 32 -145 77 -58 95 17 223 130 223 75 0 135
-54 147 -130 7 -48 28 -75 59 -75 77 0 71 135 -9 226 -39 44 -101 84 -132 84
-12 0 -15 13 -15 60 0 48 -4 61 -19 70 -31 16 -59 12 -75 -12z"/>
</g>
</svg>
