<?xml version="1.0" standalone="no"?>
<!DOCTYPE svg PUBLIC "-//W3C//DTD SVG 20010904//EN"
 "http://www.w3.org/TR/2001/REC-SVG-20010904/DTD/svg10.dtd">
<svg version="1.0" xmlns="http://www.w3.org/2000/svg"
 width="512.000000pt" height="512.000000pt" viewBox="0 0 512.000000 512.000000"
 preserveAspectRatio="xMidYMid meet">

<g transform="translate(0.000000,512.000000) scale(0.100000,-0.100000)"
fill="#000000" stroke="none">
<path d="M1993 5096 c-26 -22 -28 -31 -31 -109 l-4 -85 -43 29 c-93 63 -201
89 -402 96 l-161 6 -28 -28 c-25 -25 -26 -30 -20 -94 14 -160 72 -311 153
-401 85 -94 179 -127 446 -155 l57 -6 0 -84 0 -84 -32 -5 c-18 -3 -60 -8 -93
-11 -143 -15 -338 -72 -490 -145 -775 -371 -1125 -1296 -789 -2085 86 -204
157 -299 261 -350 141 -69 310 -47 427 55 57 51 56 112 -5 165 -45 40 -137
175 -182 267 -93 190 -132 403 -109 605 15 136 42 233 98 352 112 239 276 407
509 522 156 77 278 108 445 116 523 22 974 -310 1117 -823 26 -92 28 -113 28
-284 0 -172 -2 -192 -28 -285 -15 -55 -57 -160 -92 -235 -35 -74 -68 -153 -74
-175 -17 -65 -13 -186 9 -256 28 -91 64 -143 195 -277 112 -116 115 -120 115
-164 0 -32 8 -56 29 -89 45 -70 699 -715 743 -734 47 -19 89 -19 135 0 46 19
297 266 324 317 24 47 24 109 0 156 -25 48 -717 737 -754 751 -16 6 -47 11
-70 11 -40 0 -48 5 -131 89 l-89 89 46 94 c164 335 208 721 122 1083 -33 138
-67 231 -136 365 -159 307 -395 543 -699 699 -173 89 -365 149 -525 166 -33 3
-77 8 -97 11 l-38 6 0 84 c0 46 4 84 9 84 54 0 232 25 291 41 135 37 198 82
265 194 62 103 117 331 95 390 -19 49 -35 54 -166 55 -194 0 -344 -33 -444
-100 l-45 -30 -3 73 c-3 99 -8 114 -42 132 -41 21 -64 19 -97 -9z m-359 -246
c112 -18 168 -40 205 -78 38 -41 96 -158 105 -214 l7 -37 -58 5 c-93 8 -213
34 -253 54 -60 31 -126 135 -148 238 l-10 42 47 0 c25 0 73 -4 105 -10z m976
-8 c0 -48 -51 -159 -103 -224 -29 -37 -167 -81 -291 -94 l-69 -7 7 44 c8 52
47 140 82 186 14 18 43 42 66 54 59 30 175 58 246 58 54 1 62 -1 62 -17z
m-268 -861 c435 -93 802 -375 998 -766 112 -226 153 -395 153 -645 1 -259 -42
-438 -164 -679 -51 -103 -68 -146 -64 -164 4 -13 56 -73 116 -133 60 -60 109
-113 109 -119 0 -6 -25 -35 -55 -65 l-55 -54 -115 114 c-137 137 -159 179
-153 296 3 63 10 84 65 195 65 131 101 233 129 364 24 110 24 348 0 470 -88
453 -410 825 -845 977 -176 61 -411 82 -596 54 -541 -84 -956 -477 -1072
-1016 -25 -118 -25 -381 1 -500 43 -199 139 -406 253 -544 31 -37 19 -46 -60
-46 -69 0 -122 24 -164 75 -41 49 -110 192 -149 308 -56 166 -69 249 -69 462
0 163 3 205 23 295 93 416 342 755 707 963 146 83 353 153 520 176 112 16 374
6 487 -18z m1678 -2906 l335 -335 -123 -122 -122 -123 -337 337 -338 338 120
120 c66 66 122 120 125 120 3 0 156 -151 340 -335z"/>
<path d="M2015 3490 c-47 -18 -50 -31 -53 -252 -2 -114 -5 -208 -7 -208 -2 0
-23 13 -47 29 -91 61 -232 91 -432 94 l-128 2 -25 -30 c-24 -27 -25 -34 -19
-95 14 -155 74 -313 152 -399 78 -87 214 -136 404 -148 l100 -6 0 -153 0 -153
-44 30 c-94 63 -257 99 -448 99 -115 0 -120 -1 -145 -26 -24 -25 -25 -29 -19
-100 8 -91 48 -231 84 -298 63 -116 155 -186 289 -220 50 -13 222 -36 268 -36
13 0 15 -22 15 -150 l0 -150 -48 30 c-99 60 -218 88 -414 97 l-137 6 -32 -32
c-31 -32 -32 -33 -25 -100 3 -38 17 -108 32 -157 69 -239 172 -333 410 -375
60 -10 133 -19 162 -19 l52 0 0 -300 0 -300 -951 0 -951 0 -29 -29 c-38 -38
-38 -74 0 -112 l29 -29 1947 0 1947 0 29 29 c38 38 38 74 0 112 l-29 29 -911
0 -911 0 0 300 0 300 48 0 c77 0 232 28 310 56 102 37 169 100 222 208 47 95
79 214 83 304 2 60 0 65 -28 89 -29 26 -30 26 -170 20 -200 -8 -319 -36 -413
-99 -24 -15 -45 -28 -48 -28 -2 0 -4 68 -4 150 0 83 4 150 9 150 54 0 232 25
291 41 135 37 198 82 265 194 62 103 117 331 95 390 -19 49 -35 54 -166 55
-193 0 -341 -33 -447 -100 l-48 -30 3 153 3 152 95 7 c355 27 498 155 556 502
14 85 14 96 0 124 -23 45 -68 56 -195 48 -204 -13 -325 -44 -415 -104 l-46
-31 0 212 c-1 222 -2 232 -47 255 -25 14 -40 14 -68 2z m-341 -526 c44 -9 97
-24 118 -35 64 -33 132 -143 152 -248 l6 -34 -87 7 c-127 9 -227 41 -270 85
-49 50 -86 127 -107 223 l-6 27 57 -5 c32 -3 94 -12 137 -20z m932 -16 c-8
-52 -47 -140 -83 -186 -45 -59 -195 -111 -320 -112 -60 0 -61 1 -38 77 16 55
46 112 82 156 38 49 201 100 332 106 l34 1 -7 -42z m-972 -828 c161 -26 209
-57 266 -171 26 -51 56 -147 48 -154 -5 -5 -171 15 -223 26 -71 17 -118 42
-149 83 -34 45 -72 127 -84 184 l-10 42 47 0 c25 0 73 -4 105 -10z m976 -8 c0
-48 -51 -159 -103 -225 -30 -37 -160 -77 -301 -92 l-59 -7 7 44 c8 52 47 139
82 185 14 18 43 42 66 54 59 30 175 58 246 58 54 1 62 -1 62 -17z m-925 -854
c89 -18 140 -46 174 -93 38 -54 76 -136 85 -189 l7 -38 -78 7 c-92 8 -217 39
-250 60 -52 35 -116 150 -138 249 l-6 29 78 -7 c43 -4 101 -12 128 -18z m921
-18 c-8 -51 -45 -134 -83 -185 -22 -29 -46 -46 -89 -63 -72 -28 -184 -52 -243
-52 l-44 0 7 40 c8 51 45 134 84 186 25 34 44 46 104 68 87 32 144 43 217 45
l54 1 -7 -40z"/>
<path d="M4205 138 c-31 -36 -29 -79 6 -113 19 -19 34 -20 427 -23 441 -2 445
-2 470 52 17 33 9 69 -20 96 -21 19 -34 20 -439 20 l-417 0 -27 -32z"/>
</g>
</svg>
