<?xml version="1.0" standalone="no"?>
<!DOCTYPE svg PUBLIC "-//W3C//DTD SVG 20010904//EN"
 "http://www.w3.org/TR/2001/REC-SVG-20010904/DTD/svg10.dtd">
<svg version="1.0" xmlns="http://www.w3.org/2000/svg"
 width="512.000000pt" height="512.000000pt" viewBox="0 0 512.000000 512.000000"
 preserveAspectRatio="xMidYMid meet">

<g transform="translate(0.000000,512.000000) scale(0.100000,-0.100000)"
fill="#000000" stroke="none">
<path d="M64 4690 c-12 -4 -31 -21 -43 -36 l-21 -27 0 -2068 0 -2069 29 -32
29 -33 2502 0 2502 0 29 33 29 32 0 2070 0 2070 -29 32 -29 33 -1047 0 -1047
0 -29 -33 c-53 -59 -29 -140 49 -162 24 -6 366 -10 985 -10 l947 0 0 -295 0
-295 -2360 0 -2360 0 0 295 0 295 948 0 c618 0 960 4 984 10 78 22 102 103 49
162 l-29 33 -1034 2 c-568 1 -1043 -2 -1054 -7z m4856 -2530 l0 -1540 -2360 0
-2360 0 0 1540 0 1540 2360 0 2360 0 0 -1540z"/>
<path d="M1409 3271 c-202 -65 -341 -256 -343 -471 0 -100 19 -171 68 -253 31
-51 33 -59 18 -63 -171 -52 -313 -168 -387 -316 -57 -117 -65 -160 -65 -374
l0 -191 27 -27 c14 -14 36 -29 47 -32 12 -2 373 -3 804 -2 l784 3 30 34 30 33
-4 202 c-3 188 -5 206 -31 276 -33 93 -102 195 -176 261 -56 50 -197 129 -232
129 -30 0 -29 14 2 61 68 102 89 271 49 401 -48 157 -179 288 -329 332 -74 22
-220 20 -292 -3z m241 -192 c107 -32 200 -157 200 -268 0 -94 -24 -156 -84
-216 -67 -67 -129 -89 -230 -83 -83 6 -134 29 -187 85 -46 48 -65 85 -77 151
-25 137 56 281 182 326 50 18 145 20 196 5z m323 -811 c112 -53 209 -171 236
-289 6 -24 11 -88 11 -141 l0 -98 -661 0 -661 0 3 128 c4 122 6 131 38 197 54
110 140 184 256 221 30 10 124 13 380 11 l340 -2 58 -27z"/>
<path d="M3159 3261 c-40 -40 -40 -89 0 -133 l29 -33 559 -3 c307 -2 573 0
592 3 77 14 107 103 55 164 l-26 31 -590 0 -590 0 -29 -29z"/>
<path d="M3184 2764 c-60 -29 -73 -107 -25 -155 l29 -29 587 0 587 0 29 29
c51 51 33 137 -33 160 -21 7 -216 11 -587 11 -480 0 -560 -3 -587 -16z"/>
<path d="M3173 2240 c-58 -35 -57 -125 0 -161 31 -19 51 -19 615 -17 l584 3
24 28 c16 19 24 40 24 67 0 27 -8 48 -24 67 l-24 28 -584 3 c-566 2 -584 2
-615 -18z"/>
<path d="M3159 1711 c-48 -49 -35 -126 26 -156 29 -13 108 -15 588 -15 369 0
564 4 585 11 66 23 84 109 33 160 l-29 29 -587 0 -587 0 -29 -29z"/>
<path d="M756 1215 c-41 -21 -55 -44 -56 -87 0 -25 8 -46 26 -67 l26 -31 1808
0 1808 0 26 31 c47 55 28 136 -36 158 -22 8 -565 11 -1802 11 -1563 0 -1774
-2 -1800 -15z"/>
<path d="M2524 4691 c-65 -28 -84 -113 -35 -162 91 -91 230 36 144 131 -30 32
-75 45 -109 31z"/>
<path d="M3391 4287 c-37 -18 -64 -70 -56 -106 8 -39 47 -77 86 -85 54 -10
771 -7 811 4 93 26 106 145 21 189 -32 16 -829 15 -862 -2z"/>
<path d="M4558 4283 c-86 -54 -49 -183 52 -183 33 0 48 6 71 29 83 83 -23 216
-123 154z"/>
</g>
</svg>
