<?xml version="1.0" standalone="no"?>
<!DOCTYPE svg PUBLIC "-//W3C//DTD SVG 20010904//EN"
 "http://www.w3.org/TR/2001/REC-SVG-20010904/DTD/svg10.dtd">
<svg version="1.0" xmlns="http://www.w3.org/2000/svg"
 width="512.000000pt" height="512.000000pt" viewBox="0 0 512.000000 512.000000"
 preserveAspectRatio="xMidYMid meet">

<g transform="translate(0.000000,512.000000) scale(0.100000,-0.100000)"
fill="#000000" stroke="none">
<path d="M769 5097 c-24 -13 -57 -43 -74 -66 l-30 -43 -3 -1091 c-2 -769 0
-1103 8 -1130 14 -47 65 -106 107 -123 26 -11 165 -14 718 -14 l685 0 0 -235
0 -236 25 -24 c31 -32 69 -32 100 0 l25 24 0 236 0 235 188 -2 187 -3 3 -702
2 -701 -190 -1 -190 -1 0 321 0 320 -25 24 c-31 32 -69 32 -100 0 l-25 -24 0
-334 0 -334 -57 -13 c-32 -7 -129 -34 -216 -61 -256 -79 -294 -84 -592 -84
-297 0 -320 3 -594 87 -218 66 -328 87 -486 94 -125 6 -131 5 -164 -17 -19
-13 -42 -40 -53 -59 -17 -33 -18 -63 -16 -537 3 -489 4 -502 24 -529 11 -15
33 -37 48 -48 l27 -21 2459 0 2459 0 27 21 c15 11 37 33 48 48 20 27 21 40 24
529 2 474 1 504 -16 537 -11 19 -34 46 -53 59 -33 22 -39 23 -164 17 -158 -7
-268 -28 -486 -94 -274 -84 -297 -87 -594 -87 -299 0 -336 5 -597 86 -89 27
-203 58 -253 68 l-90 18 -3 712 -2 711 725 0 c587 0 732 3 758 14 42 17 93 76
107 123 8 27 10 361 8 1130 l-3 1091 -30 43 c-16 23 -50 53 -74 66 -43 22 -52
23 -286 23 -222 0 -245 -2 -266 -19 -32 -26 -32 -86 0 -112 21 -17 43 -19 251
-19 194 0 231 -2 244 -16 14 -14 16 -126 16 -1083 0 -816 -3 -1070 -12 -1079
-17 -17 -3459 -17 -3476 0 -9 9 -12 263 -12 1079 0 957 2 1069 16 1083 14 14
150 16 1353 16 l1338 0 27 21 c36 28 36 80 0 108 l-27 21 -1352 0 -1352 0 -44
-23z m1978 -4032 c120 -6 203 -24 426 -90 290 -86 319 -90 637 -90 315 1 352
6 638 94 189 59 291 80 425 88 l97 6 0 -461 0 -462 -2410 0 -2410 0 0 462 0
461 98 -6 c133 -8 235 -29 424 -88 286 -88 323 -93 638 -94 321 0 361 6 642
90 99 30 214 62 256 71 83 17 302 32 392 28 30 -2 97 -6 147 -9z"/>
<path d="M1065 4777 c-53 -24 -70 -62 -69 -147 1 -108 31 -179 105 -251 61
-60 123 -90 212 -103 l47 -7 0 -100 c0 -54 -2 -99 -4 -99 -2 0 -30 12 -61 26
-73 34 -174 43 -227 21 -56 -24 -73 -58 -72 -147 1 -102 30 -175 97 -244 61
-61 120 -92 206 -107 l61 -11 0 -99 c0 -54 -2 -99 -4 -99 -2 0 -30 12 -61 26
-73 34 -174 43 -227 21 -56 -24 -73 -58 -72 -147 2 -146 74 -258 206 -320 l67
-32 178 4 c176 3 179 3 231 33 30 16 76 53 102 82 63 69 90 140 90 239 0 71
-2 76 -34 112 l-35 37 -88 0 c-75 0 -97 -4 -145 -27 l-58 -27 0 98 0 98 62 13
c121 23 214 93 266 200 21 44 28 72 30 140 3 75 1 88 -18 113 -60 76 -179 76
-332 -1 -5 -2 -8 41 -8 96 l0 100 59 10 c120 21 215 92 268 200 23 46 29 74
31 142 3 76 1 88 -19 114 -28 36 -76 56 -133 56 -47 0 -171 -34 -181 -50 -9
-15 -35 -12 -35 4 0 20 -39 46 -68 46 -13 0 -37 -13 -53 -29 l-29 -30 -57 26
c-69 32 -181 41 -228 20z m150 -148 c55 -15 118 -82 135 -143 17 -60 7 -71
-47 -57 -64 17 -106 51 -135 110 -48 94 -38 113 47 90z m505 -18 c0 -73 -65
-153 -143 -176 -67 -20 -67 -20 -67 15 0 83 104 188 188 190 18 0 22 -5 22
-29z m-484 -650 c22 -10 54 -35 71 -56 34 -41 61 -121 47 -135 -14 -14 -80 5
-125 35 -42 27 -89 108 -89 153 0 28 37 30 96 3z m484 -10 c0 -73 -65 -153
-143 -176 -67 -20 -67 -20 -67 15 0 68 51 137 125 171 61 28 85 25 85 -10z
m-484 -650 c49 -22 97 -78 113 -130 17 -57 15 -61 -27 -61 -59 0 -123 46 -156
111 -35 71 -35 99 2 99 15 0 45 -9 68 -19z m484 -13 c-1 -77 -85 -167 -166
-176 l-47 -5 6 42 c8 60 50 116 110 146 28 14 61 25 74 25 19 0 23 -5 23 -32z"/>
<path d="M2169 4769 c-20 -12 -46 -39 -58 -59 -19 -35 -21 -53 -21 -236 0
-223 6 -249 69 -291 l34 -23 915 0 c903 0 915 0 948 20 18 12 42 40 54 65 20
41 21 57 18 244 -3 219 -5 226 -72 275 -27 21 -36 21 -939 23 l-912 3 -36 -21z
m1811 -294 l0 -165 -870 0 -870 0 0 165 0 165 870 0 870 0 0 -165z"/>
<path d="M2134 3996 c-48 -21 -60 -80 -24 -116 20 -20 33 -20 999 -20 l980 0
20 26 c27 35 26 57 -3 91 l-24 28 -959 2 c-789 2 -963 0 -989 -11z"/>
<path d="M2134 3696 c-48 -21 -60 -80 -24 -116 20 -20 33 -20 999 -20 l980 0
20 26 c27 35 26 57 -3 91 l-24 28 -959 2 c-789 2 -963 0 -989 -11z"/>
<path d="M2134 3396 c-48 -21 -60 -80 -24 -116 20 -20 33 -20 999 -20 l980 0
20 26 c27 35 26 57 -3 91 l-24 28 -959 2 c-789 2 -963 0 -989 -11z"/>
<path d="M2134 3096 c-48 -21 -60 -80 -24 -116 19 -19 33 -20 525 -20 492 0
506 1 525 20 25 25 26 71 1 101 l-19 24 -489 2 c-395 2 -494 0 -519 -11z"/>
</g>
</svg>
